<?xml version="1.0" standalone="no"?><!DOCTYPE svg PUBLIC "-//W3C//DTD SVG 1.1//EN" "http://www.w3.org/Graphics/SVG/1.1/DTD/svg11.dtd"><svg t="1738429240017" class="icon" viewBox="0 0 1158 1024" version="1.1" xmlns="http://www.w3.org/2000/svg" p-id="15404" xmlns:xlink="http://www.w3.org/1999/xlink" width="144.75" height="128"><path d="M1149.149288 1.201898c33.583729 7.853559-92.016814 134.725424-161.32339 288.728949a9991.072542 9991.072542 0 0 1-25.239864 55.617085l-4.234848 9.255051c-2.429831 5.302237-4.864 10.595797-7.29383 15.872l-3.644746 7.905627c-52.306441 113.434034-103.094237 219.088271-126.819796 268.071051-25.348339-20.345492-61.283797-35.970169-103.658306-35.970169-6.838237 0-9.502373 0.373153-15.169084 0.737627 0.08678 21.425898 1.06739 42.565424 1.479593 63.809084 0.459932-0.052068 0.898169-0.125831 1.332068-0.21261l0.520678-0.112813 0.794034-0.195255c5.358644-1.392814 12.687186-4.629695 50.796474-4.629694h6.087593c3.761898-0.013017 4.898712-0.034712 5.853289-0.04339h0.720271c18.063186 0 27.791186 3.631729 33.49261 9.984-1.258305 2.061017-2.581695 4.18278-3.965831 6.369627-6.629966-8.721356-19.117559-9.294102-36.807593-9.320136h-6.126644c-51.191322 0-60.225085 7.315525-68.490847 18.492746l-0.650848 0.889491-0.325424 0.451255-0.976271 1.36244c1.136814-0.073763 1.917831-0.190915 2.64678-0.190915 12.84339 0 14.778576 3.718508 15.698441 8.469695 0.04339 0.203932 0.078102 0.438237 0.112813 0.702915L401.060881 707.254237l0.004339-44.847729c-61.201356-28.45939-111.542237-38.413017-151.018305-29.86522l-1.935186 0.433898c-39.194034 9.176949-57.187797 33.36678-53.989966 72.573831l0.151864 1.709559H0c74.387525-59.300881 240.418712-184.771254 335.481492-340.176271 80.765831-132.030915 125.748068-233.654237 134.95105-304.869966 36.586305 15.941424 76.904136 23.907797 120.96217 23.907797 66.082712 0 213.499661-19.065492 291.510237-39.753763 78.014915-20.688271 232.664949-53.013695 266.244339-45.164475z m-411.387661 693.395526a3.245559 3.245559 0 0 1 3.102373 3.085017c0.386169 3.254237 0.85478 6.378305 1.319051 9.567457h-6.951051c-0.373153-3.679458-0.650847-6.564881-0.650847-7.857898 0-1.509966 0.052068-4.794576 3.180474-4.794576z m35.154441-0.750644a3.15878 3.15878 0 0 1 3.124068 2.959186c0.585763 3.471186 1.084746 6.951051 1.496949 10.443932h-6.95539c-0.433898-3.866034-0.833085-6.447729-0.833085-8.461017 0-2.455864 0.216949-4.942102 3.167458-4.942101z m-295.068204-150.853424c-5.410712 2.707525-55.860068 35.341017-55.860067 100.352a101.792542 101.792542 0 0 0 2.967864 24.506576c2.208542 8.938305 16.357966 13.572339 19.321492 14.305627 28.233763 6.964068 26.888678-2.256271 28.750101 17.607594l0.08678 0.954576h145.976407c2.907119-43.17722-1.214915-35.774915 18.917966-42.036068 0.021695-0.459932 0.065085-0.794034 0.065085-1.093424 0-0.564068-0.412203-3.501559-0.412204-4.577627a3.662102 3.662102 0 0 1 3.614373-3.805288c2.746576 0 3.505898 3.015593 3.857356 4.004881 2.117424-3.588339 3.913763-7.085559 4.369356-11.116474 4.369356-38.642983 5.376-49.355932 5.58861-56.897085l0.017356-0.768 0.013017-0.768 0.013017-1.128136 0.004339-0.750644v-0.754983c0.004339-4.109017-0.164881-8.222373-0.516339-12.335728-1.006644-11.884475-13.320678-12.730576-14.813288-12.730577-0.190915 0-0.520678-0.034712-0.954577-0.034712-3.787932 0-15.720136 2.733559-15.989152 55.964204v3.24122c0.008678 1.501288 0.026034 2.499254 0.030373 2.90278v0.373152c-0.008678 1.865763-0.312407 5.58861-7.866576 5.588611-20.128542 0-29.361898-28.437695-59.877967-40.873221-3.037288 2.251932-6.95539 5.571254-15.121355 5.571254-2.156475 0-8.048814-0.490305-8.048814-4.056949a3.111051 3.111051 0 0 1 3.280271-3.102373c1.275661 0 1.995932 0.603119 4.234848 0.603119 1.844068-0.047729 3.662102-0.433898 5.367322-1.128136-9.094508-5.302237-32.997966 3.688136-67.015594-38.018169z m302.088678-181.621153c-54.050712 0-92.363932 33.735593-92.363932 69.575594a54.974915 54.974915 0 0 0 5.167729 22.797017c1.284339 2.842034 3.536271 3.180475 3.536271 5.493152a4.386712 4.386712 0 0 1-1.796339 3.11539c-8.261424 7.415322-13.581017 8.083525-17.225763 9.30278 3.718508 2.212881 7.988068 3.375729 12.340068 3.354033 7.33722 0 12.327051-2.724881 14.557288-2.724881 4.391051 0 24.198508 26.940746 73.059797 26.940746 53.829424 0 92.251119-33.644475 92.251119-69.480136 0-41.875525-45.450847-68.373695-89.526238-68.373695z" fill="#FFCCC8" p-id="15405"></path><path d="M900.503864 701.292475c-6.964068 0-17.10861 0.121492-31.878508 0.121491h-1.36678c-28.680678-88.254915-129.050034-97.800678-149.868474-97.800678-8.231051 0-12.943186 0.559729-14.266577 0.559729-0.485966 0-0.98061-0.021695-1.501288-0.021695-0.264678-1.128136 3.124068-75.663186-77.841356-117.855458a169.233356 169.233356 0 0 0-78.513898-19.143593c-75.628475 0-136.981695 51.994034-140.600407 114.583865-0.737627 12.865085-1.106441 1.06739-7.857898 74.105491-12.279322-4.959458-63.179932-29.99539-118.909831-29.99539-88.055322 0-90.064271 60.476746-91.127322 66.321356v9.163932c31.240678 139.758644 168.283119 187.109966 290.629424 251.648a3.254237 3.254237 0 0 0 1.518644 0.390509c3.219525 0 14.691797-16.791864 23.599729-26.120678 59.977763 73.068475 90.177085 77.936814 98.26061 77.936813 5.293559 0 11.502644-3.019932 11.502644-9.263728 0-12.535322-27.105627-38.877288-27.105627-46.800272 0-0.733288 0.104136-1.457898 0.303729-2.160813a2.928814 2.928814 0 0 1 0.867797-0.13017c7.111593 0 40.213695 28.16 64.303728 28.16 8.087864 0 15.819932-1.544678 15.819933-11.22061 0-20.150237-45.016949-42.001356-49.694373-51.226034 9.476339 0.520678 39.614915 5.905356 59.122983 5.905356 7.988068 0 12.895458-9.072814 12.895457-12.240271 0-7.263458-20.636203-19.954983-59.313898-28.307525 12.205559-6.682034 32.416542-12.604746 32.416542-32.030373 0-3.384407-1.306034-11.324746-9.671593-11.324746-0.390508 0-0.42522 0.017356-1.128135 0.017356h-0.876475c-5.827254 0-7.567186 2.069695-61.049491 4.200136-9.450305 0.373153-14.24922 2.581695-18.197695 3.584 13.507254-17.299525 15.247186-18.631593 15.247186-20.380204 0-24.267932-206.431458-114.002441-206.531254-114.050169l0.143186-0.38617 317.170983 0.564068c1.726915 26.072949 3.15878 54.215593 23.21356 54.215593 16.518508 0 15.064949-3.058983 19.013423-5.901017 0.737627 0.898169 2.477559 3.636068 14.192814 3.636068 10.600136 0 15.438102-2.356068 18.323525-5.063593 3.354034 1.336407 5.449763 2.720542 9.675933 2.720542 30.776407 0 29.722034-44.561356 30.303457-49.303864l1.314712-0.004339c1.028339 0 24.463186 0.629153 25.721492 0.629152 3.297627 0 4.885695-0.564068 6.990101-0.564067 11.936542 0 61.509424 0.117153 64.681221 0.117152h0.229966c1.848407 0 5.054915-0.069424 5.054915-3.527593 0-3.232542-0.694237-3.757559-15.216814-3.757559z m-249.348339 140.288c2.863729 0 3.54061 1.089085 3.540611 4.460474 0 21.278373-44.192542 27.782508-44.192543 34.668475a3.280271 3.280271 0 0 0 3.341017 3.262915c0.381831 0 1.644475-0.156203 3.887729-0.156203 14.67878 0 50.076203 10.899525 63.826441 22.445559-2.629424 5.098305-4.720814 5.102644-7.549831 5.102644-14.709153 0-48.457763-5.779525-55.478237-5.779525-0.108475 0-0.403525-0.013017-0.833085-0.013017-2.364746 0-8.686644 0.433898-8.686644 6.10061 0 13.008271 50.297492 35.063322 50.297492 51.902915 0 3.006915-0.915525 3.293288-2.256272 3.54061a36.373695 36.373695 0 0 1-6.61261 0.650848c-22.345763 0-52.861831-28.16-65.110779-28.16-7.003119 0-7.289492 7.332881-7.289492 9.328813 0 12.739254 27.057898 36.586305 27.057898 46.787254a1.709559 1.709559 0 0 1-1.431864 1.718238 14.644068 14.644068 0 0 1-3.223864 0.520678c-28.07322 0-79.546576-59.279186-93.266441-75.159865 59.105627-76.149153 49.039186-81.221424 143.980474-81.221423z m-255.566101-141.255594c-0.707254 0.052068-1.36678 0.147525-2.021966 0.147526-27.066576 0-29.899932-0.125831-29.99539-0.125831-0.672542 0-0.984949 0.529356-2.481899 0.529356-1.418847 0-2.030644-0.290712-13.754576-4.182779 1.514305-2.108746 21.308746-22.597424 21.308746-27.014509a3.206508 3.206508 0 0 0-3.141424-3.032949c-3.245559 0-0.490305 0.763661-24.32 25.747525a3.067661 3.067661 0 0 1-2.317017 1.141153c-2.794305 0-21.156881-7.76678-33.076067-7.76678-16.110644 0-30.069153 7.450034-30.069153 19.082848 0 8.929627 13.381424 16.197424 24.259254 16.197423 21.690576 0 38.170034-18.813831 41.480678-18.81383 33.106441 0 205.151458 96.963254 205.251254 97.054373-12.149153 17.403661-30.064814 39.267797-30.064813 41.936271a3.015593 3.015593 0 0 0 2.950508 2.976542c3.449492 0 12.669831-16.184407 31.934916-40.855864l27.183728 17.568542c-6.625627 8.955661-94.945627 119.395797-100.486508 125.374916l-21.482305-11.18156c5.979119-8.487051 37.792542-44.856407 37.792542-47.620339a2.980881 2.980881 0 0 0-2.950508-2.950508c-3.345356 0-17.933017 21.022373-40.543458 47.472813-248.393763-109.264271-256.772339-215.174508-256.772339-232.656271 0-1.266983 0.04339-2.069695 0.04339-2.377763 0-45.086373 37.705763-64 83.464678-64 56.641085 0 112.882983 27.912678 118.423864 30.711322l-0.620474 36.638373z m-62.915255-1.188881c-11.138169 8.821153-21.070102 14.726508-32.525016 14.726508-4.490847 0-9.632542-0.490305-16.193085-6.621288a3.341017 3.341017 0 0 1-1.115119-2.533966c0-4.972475 7.601898-11.693559 22.666848-11.693559 8.304814 0 12.626441 1.752949 27.162034 6.122305z m316.832543-57.040271c-0.459932 4.030915-2.256271 7.528136-4.373695 11.116474-0.351458-0.989288-1.11078-4.004881-3.857356-4.004881a3.662102 3.662102 0 0 0-3.618712 3.805288c0 1.076068 0.416542 4.00922 0.416543 4.577627 0 0.303729-0.04339 0.633492-0.060746 1.093424-20.132881 6.261153-16.015186-1.141153-18.917966 42.031729h-145.980746c-1.995932-21.109153-0.160542-11.485288-28.836881-18.557831-2.959186-0.733288-17.112949-5.362983-19.321492-14.305627a101.792542 101.792542 0 0 1-2.967864-24.506576c0-65.010983 50.449356-97.644475 55.860067-100.352 34.017627 41.706305 57.925424 32.715932 67.015594 38.018169-1.70522 0.694237-3.523254 1.080407-5.367322 1.128136-2.238915 0-2.959186-0.603119-4.234848-0.603119a3.124068 3.124068 0 0 0-3.280271 3.102373c0 3.566644 5.892339 4.056949 8.048814 4.056949 8.165966 0 12.084068-3.319322 15.125694-5.575593 30.511729 12.439864 39.745085 40.87322 59.877967 40.873221 7.840542 0 7.862237-4.013559 7.862237-5.788204v-0.034712c0-0.329763-0.034712-1.904814-0.034712-4.443118 0-55.000949 12.162169-57.795254 15.993491-57.795255 0.433898 0 0.763661 0.030373 0.954577 0.030373 1.49261 0 13.806644 0.846102 14.813288 12.730577 0.347119 4.113356 0.520678 8.226712 0.520678 12.335728 0 8.621559-0.433898 14.991186-5.640678 61.066848z m149.946576 95.639864c-2.60339 8.743051-10.500339 12.695864-18.180339 12.695865-2.781288 0-2.794305-0.433898-5.050576-1.119458 1.896136-6.595254 2.802983-13.437831 2.690169-20.302102v-0.720271a204.791322 204.791322 0 0 0-2.876745-31.483661 3.15878 3.15878 0 0 0-3.119729-2.959186c-2.950508 0-3.167458 2.486237-3.167458 4.94644 0 4.382373 1.900475 11.463593 1.900475 28.650305 0 18.449356-1.319051 25.383051-16.388339 25.383051-5.684068 0-8.135593-0.407864-10.443932-3.245559a5.80122 5.80122 0 0 1-1.492611-3.818305c0-1.774644 1.019661-4.30861 1.019661-12.648136 0-15.247186-2.199864-24.623729-3.479864-35.432135a3.245559 3.245559 0 0 0-3.102373-3.085017c-3.128407 0-3.180475 3.28461-3.180474 4.794576 0 4.056949 2.711864 23.842712 2.711864 34.425492 0 20.371525-6.590915 21.438915-14.16678 21.438915-0.889492 0-1.792-0.013017-2.698847-0.013017-17.360271 0-15.260203-41.89722-16.583593-48.700746-0.919864-4.751186-2.85939-8.469695-15.694102-8.469695-0.733288 0-1.518644 0.117153-2.651119 0.190915 9.055458-12.682847 15.229831-21.195932 70.44339-21.195932h4.456136c28.446373 0 43.975593 0.763661 43.975593 32.260339 0 9.697627-2.152136 19.104542-4.920407 28.407322z m11.776-36.503864c-3.62739-18.90061-8.651932-31.197288-41.879864-31.197288-1.588068 0-2.126102 0.04339-10.938577 0.04339h-1.722576c-44.461559 0-47.021559 4.404068-53.443254 5.150372-0.412203-21.243661-1.388475-42.383186-1.475254-63.809084 5.666712-0.364475 8.330847-0.737627 15.160406-0.737627 77.841356 0 133.944407 52.714305 142.622373 90.550237h-48.323254z" fill="#2F2E41" p-id="15406"></path><path d="M780.136136 354.338712c-63.405559 0-99.735864 41.051119-99.735865 76.474576 0.047729 9.836475 2.429831 19.525424 6.946712 28.307526-5.002847 3.588339-10.118508 6.378305-16.145356 6.378305-2.117424 0-2.989559-0.290712-3.757559-0.290712a3.102373 3.102373 0 0 0-2.386441 0.772339 2.976542 2.976542 0 0 0-0.997966 2.26061c0 3.813966 13.216542 13.837017 25.122712 13.837017 5.792542 0 11.919186-2.113085 13.35539-2.113085 3.297627 0 25.083661 26.237831 74.686915 26.237831 46.331661 0 99.449492-28.238102 99.449491-76.769627 0-43.086102-45.741559-75.09478-96.538033-75.09478z m-2.924475 144.887322c-48.856949 0-68.668746-26.940746-73.059797-26.940746-2.230237 0-7.220068 2.724881-14.557288 2.724881a23.881763 23.881763 0 0 1-12.340068-3.354033c3.644746-1.219254 8.964339-1.887458 17.225763-9.30278 1.019661-0.741966 1.674847-1.874441 1.796339-3.11539 0-2.312678-2.251932-2.651119-3.536271-5.493152a54.974915 54.974915 0 0 1-5.167729-22.797017c0-35.84 38.31322-69.575593 92.363932-69.575594 44.07539 0 89.526237 26.498169 89.526238 68.373695 0 35.84-38.421695 69.480136-92.251119 69.480136z" fill="#2F2D41" p-id="15407"></path><path d="M421.488814 432.440407c2.13478 0.030373 3.870373 2.412475 3.926779 5.389017 0 0.997966-1.149831 7.627932-4.677424 7.627932-1.11078 0.013017-2.178169-0.624814-2.933152-1.761627a6.981424 6.981424 0 0 1-1.054373-4.204475v-0.073762c0.329763-4.122034 2.698847-6.977085 4.73817-6.977085z m-32.759322-117.152543c3.718508 0 7.315525 0.459932 10.613152 2.573017 17.533831 11.237966 16.843932 28.954034 17.399322 35.961492-0.355797 16.258169-6.261153 36.451797-6.261152 44.734915 0 10.023051 5.024542 16.045559 5.024542 19.985356 0 2.885424-2.356068 5.224136-5.263187 5.219797-7.059525 0-10.743322-17.516475-10.743322-25.64339 0-11.728271 6.087593-28.654644 6.087594-44.387797 0-21.998644-12.045017-27.600271-16.531526-27.600271-16.631322 0-27.17939 14.774237-27.17939 30.733017 0 2.477559 0.446915 4.608 0.446916 5.779525 0.117153 1.32339-0.338441 2.638102-1.258305 3.601356a4.703458 4.703458 0 0 1-3.540611 1.466577c-5.310915 0-5.870644-7.441356-5.870644-12.778305 0-20.471322 13.880407-39.645288 37.076611-39.645289z" fill="#FFFFFF" p-id="15408"></path><path d="M425.827797 428.101424c2.13478 0.030373 3.870373 2.412475 3.926779 5.389017 0 0.997966-1.149831 7.627932-4.677423 7.627932-1.11078 0.013017-2.178169-0.624814-2.933153-1.761627a6.981424 6.981424 0 0 1-1.054373-4.204475v-0.073763c0.329763-4.122034 2.698847-6.977085 4.73817-6.977084z m-32.759322-117.152543c3.718508 0 7.315525 0.459932 10.613152 2.573017 17.533831 11.237966 16.843932 28.954034 17.399322 35.961492-0.355797 16.258169-6.261153 36.451797-6.261152 44.734915 0 10.023051 5.024542 16.045559 5.024542 19.985356 0 2.885424-2.356068 5.224136-5.263186 5.219797-7.059525 0-10.743322-17.516475-10.743322-25.64339 0-11.728271 6.087593-28.654644 6.087593-44.387797 0-21.998644-12.045017-27.600271-16.531526-27.600271-16.631322 0-27.17939 14.774237-27.17939 30.733017 0 2.477559 0.446915 4.608 0.446916 5.779525 0.117153 1.32339-0.338441 2.638102-1.258305 3.601356a4.703458 4.703458 0 0 1-3.540611 1.466577c-5.310915 0-5.870644-7.441356-5.870644-12.778306 0-20.471322 13.880407-39.645288 37.076611-39.645288z" fill="#2F2D41" p-id="15409"></path><path d="M386.364746 592.132339c0.498983 13.437831 0.017356 18.206373 4.325966 18.206373a3.623051 3.623051 0 0 0 3.570983-3.991865c0-0.173559-0.707254-6.820881-0.707254-15.594305 0-121.417763 105.623864-126.047458 105.623864-133.098305a3.41478 3.41478 0 0 0-3.787932-3.49722c-10.947254 0-108.483254 19.998373-109.025627 137.975322z" fill="#FFFFFF" p-id="15410"></path><path d="M382.025763 592.132339c0.498983 13.437831 0.017356 18.206373 4.325966 18.206373a3.623051 3.623051 0 0 0 3.570983-3.991865c0-0.173559-0.707254-6.820881-0.707254-15.594305 0-121.417763 105.623864-126.047458 105.623864-133.098305a3.41478 3.41478 0 0 0-3.787932-3.49722c-10.947254 0-108.483254 19.998373-109.025627 137.975322z" fill="#2F2D41" p-id="15411"></path><path d="M744.139932 588.661153c-0.993627 0-1.987254-0.017356-2.980881-0.017356h-0.650848c-3.453831 0-7.024814 0.104136-7.024813 3.631728v0.04339c0 0.429559 0.095458 3.475525 4.26522 3.475526 0.607458 0 2.377763-0.138847 5.579932-0.138848 88.007593 0 125.062508 79.767864 129.904814 79.767865a3.449492 3.449492 0 0 0 3.436475-3.453831c0-9.42861-50.657627-82.327864-132.529899-83.308474z" fill="#FFFFFF" p-id="15412"></path><path d="M744.139932 584.322169c-0.993627 0-1.987254-0.017356-2.980881-0.017355h-0.650848c-3.453831 0-7.024814 0.104136-7.024813 3.631728v0.04339c0 0.429559 0.095458 3.475525 4.26522 3.475526 0.607458 0 2.377763-0.138847 5.579932-0.138848 88.007593 0 125.062508 79.767864 129.904814 79.767865a3.449492 3.449492 0 0 0 3.436475-3.453831c0-9.42861-50.657627-82.327864-132.529899-83.308475z" fill="#2F2D41" p-id="15413"></path><path d="M282.146712 513.258305c1.735593 0.013017 3.197831-1.206237 3.358373-2.802983 0-0.997966-0.564068-1.32339-0.564068-2.160814 0-3.193492 13.029966-12.769627 25.951458-12.769627 0.759322 0 1.527322 0.04339 2.286644 0.04339-0.72461 1.614102-8.461017 6.083254-8.461017 14.145085 0 5.098305 3.219525 9.506712 8.838508 9.506712 5.584271 0 15.416407-4.937763 15.416407-13.932475 0-2.468881-0.702915-4.434441-1.401492-7.098576 1.809356-0.520678 3.688136-0.781017 5.584272-0.763661 10.738983 0 16.240814 5.12 19.534101 5.12 1.852746-0.073763 3.306305-1.483932 3.301966-3.193492 0-4.412746-14.466169-8.608542-22.593084-8.608542-5.67539 0-8.907932 1.262644-9.979661 1.262644-2.186847 0-4.330305-3.15878-11.975594-3.15878-17.616271 0-33.540339 11.958237-33.540339 20.020068a3.844339 3.844339 0 0 0 1.097763 3.037288c0.798373 0.833085 1.939525 1.32339 3.145763 1.358102z m38.144-13.016949c0.846102 1.466576 1.310373 3.093695 1.349424 4.755525 0 5.527864-6.026847 7.476068-7.840543 7.476068-0.768 0-1.761627-0.282034-1.761627-2.776949 0-4.096 3.991864-7.706034 8.252746-9.458983z" fill="#FFFFFF" p-id="15414"></path><path d="M282.146712 508.919322c1.735593 0.013017 3.197831-1.206237 3.358373-2.802983 0-0.997966-0.564068-1.32339-0.564068-2.160814 0-3.193492 13.029966-12.769627 25.951458-12.769627 0.759322 0 1.527322 0.04339 2.286644 0.04339-0.72461 1.614102-8.461017 6.083254-8.461017 14.145085 0 5.098305 3.219525 9.506712 8.838508 9.506712 5.584271 0 15.416407-4.937763 15.416407-13.932475 0-2.468881-0.702915-4.434441-1.401492-7.098576 1.809356-0.520678 3.688136-0.781017 5.584272-0.763661 10.738983 0 16.240814 5.12 19.534101 5.12 1.852746-0.073763 3.306305-1.483932 3.301966-3.193492 0-4.412746-14.466169-8.608542-22.593084-8.608542-5.67539 0-8.907932 1.262644-9.979661 1.262644-2.186847 0-4.330305-3.15878-11.975594-3.15878-17.616271 0-33.540339 11.958237-33.540339 20.020068a3.844339 3.844339 0 0 0 1.097763 3.037288c0.798373 0.833085 1.939525 1.32339 3.145763 1.358102z m38.144-13.016949c0.846102 1.466576 1.310373 3.093695 1.349424 4.755525 0 5.527864-6.026847 7.476068-7.840543 7.476068-0.768 0-1.761627-0.282034-1.761627-2.776949 0-4.096 3.991864-7.706034 8.252746-9.458983z" fill="#2F2D41" p-id="15415"></path><path d="M551.515119 436.77939a3.341017 3.341017 0 0 0 3.150101-3.037288c0-1.089085-0.702915-1.401492-0.702915-2.963526 0-0.164881 3.037288-12.860746 11.381153-17.911322 0.234305 0.919864 2.061017 11.511322 12.483254 11.511322 6.560542 0 14.843661-5.610305 14.843661-12.105762 0-5.592949-5.740475-10.643525-15.494509-10.643526-0.841763 0-1.70522 0.026034-2.59905 0.073763 4.690441-11.437559 15.624678-19.273763 22.280678-19.273763 1.201898 0.065085 2.395119 0.203932 3.579661 0.412204 2.442847 0 2.876746-2.512271 2.876745-3.045967 0-3.735864-6.595254-3.761898-7.50644-3.761898h-0.034712c-8.087864 0-23.12678 8.508746-28.776136 25.903729-1.765966 5.432407-13.928136 4.568949-19.898576 27.283525-0.130169 0.529356-0.195254 1.076068-0.190915 1.627119 0 5.341288 3.722847 5.93139 4.608 5.93139z m26.172745-28.142644c4.026576 0 7.840542 1.575051 7.840543 3.636068 0 2.290983-4.590644 5.059254-7.706034 5.059254-5.632 0-5.367322-6.091932-5.553898-7.85356 1.757288-0.538034 3.579661-0.824407 5.419389-0.841762z" fill="#FFFFFF" p-id="15416"></path><path d="M551.515119 432.440407a3.341017 3.341017 0 0 0 3.150101-3.037288c0-1.089085-0.702915-1.401492-0.702915-2.963526 0-0.164881 3.037288-12.860746 11.381153-17.911322 0.234305 0.919864 2.061017 11.511322 12.483254 11.511322 6.560542 0 14.843661-5.610305 14.843661-12.105762 0-5.592949-5.740475-10.643525-15.494509-10.643526-0.841763 0-1.70522 0.026034-2.59905 0.073763 4.690441-11.437559 15.624678-19.273763 22.280678-19.273763 1.201898 0.065085 2.395119 0.203932 3.579661 0.412203 2.442847 0 2.876746-2.512271 2.876745-3.045966 0-3.735864-6.595254-3.761898-7.50644-3.761898h-0.034712c-8.087864 0-23.12678 8.508746-28.776136 25.903729-1.765966 5.432407-13.928136 4.568949-19.898576 27.283525-0.130169 0.529356-0.195254 1.076068-0.190915 1.627119 0 5.341288 3.722847 5.93139 4.608 5.93139z m26.172745-28.142644c4.026576 0 7.840542 1.575051 7.840543 3.636068 0 2.290983-4.590644 5.059254-7.706034 5.059254-5.632 0-5.367322-6.091932-5.553898-7.85356 1.757288-0.538034 3.579661-0.824407 5.419389-0.841762zM514.451525 954.884339a3.722847 3.722847 0 0 0-3.11105-1.765966 3.514576 3.514576 0 0 0-2.451526 0.963254 3.301966 3.301966 0 0 0-1.032678 2.360407c0 13.463864 64.498983 66.100068 91.908339 66.100068a3.605695 3.605695 0 0 0 2.525288-1.024 3.393085 3.393085 0 0 0 1.024-2.460204c0-5.263186-53.074441-11.932203-88.862373-64.173559zM638.325153 740.408407h0.282033c0.997966 0 3.757559-0.104136 3.75756-2.104407 0-2.069695-2.907119-2.13478-4.755526-2.13478-8.608542 0-138.023051 0.125831-138.122847 0.125831h-0.377492l-0.390508-0.004339c-1.080407 0-3.879051 0.151864-3.879051 2.108746 0 2.095729 2.954847 2.108746 4.82061 2.108745H568.562983v-0.099796H638.325153zM746.769356 775.289492c-31.496678 0-52.636203-0.069424-66.820339-0.069424-27.821559 0-28.906305 0.269017-28.906305 1.848407l0.008678 0.433898c0.004339 0.971932 0.997966 1.800678 2.351729 1.974237 0.559729 0.060746 1.128136 0.08678 1.692203 0.082441H700.745763v-0.08678h17.212745c9.827797 0 16.735458 0.069424 21.59078 0.069424 10.109831 0 11.290034-0.303729 11.290034-2.186848 0-1.995932-2.776949-2.065356-4.069966-2.065355zM610.421153 831.53139c0.477288 0.065085 0.963254 0.099797 1.444881 0.095457 43.480949-5.367322 43.52-5.219797 43.52-9.285423a3.88339 3.88339 0 0 0-1.058712-2.746577 3.106712 3.106712 0 0 0-2.546983-0.967593c-1.661831 0-38.629966 5.03322-41.363525 5.610305-1.596746 0.303729-2.763932 1.848407-2.763933 3.644746 0 1.805017 1.171525 3.341017 2.768272 3.644746zM641.019661 616.178983c4.295593-29.201356 4.673085-31.331797 4.673085-32.611797a3.744542 3.744542 0 0 0-0.997966-2.573017 3.206508 3.206508 0 0 0-2.403797-1.028338c-3.848678 0-3.223864 2.021966-8.461017 37.992135-0.08678 0.594441-0.138847 1.197559-0.143186 1.800678 0 2.538305 1.032678 3.861695 3.037288 3.861695 0.971932-0.039051 1.930847-0.247322 2.837695-0.629153 0.321085 1.032678 0.477288 2.117424 0.464271 3.206509 0 5.714441-1.201898 13.264271-1.201898 15.030237 0 0.720271 0.412203 3.822644 3.384406 3.822644 2.746576 0 3.393085-3.310644 3.410441-3.436474 0.633492-4.230508 0.997966-8.504407 1.084746-12.782644 0-9.181288-2.451525-11.467932-5.684068-12.652475zM512.195254 583.562847c0-3.271593-3.197831-3.406102-4.082983-3.597016-15.064949 1.427525-21.950915 14.565966-21.950915 18.371254-0.004339 0.911186 0.355797 1.778983 0.997966 2.412474 0.642169 0.624814 1.509966 0.954576 2.395119 0.911187 3.618712 0 2.746576-4.729492 8.200678-9.875526 8.244068-7.771119 14.440136-2.247593 14.440135-8.222373zM551.558508 645.050576l-0.021694 0.112814c-18.592542 0.833085-21.985627 13.029966-21.985628 13.971525 0.060746 1.848407 1.62278 3.297627 3.505899 3.271593 4.881356 0 4.074305-9.927593 17.646644-9.927593 1.792 0 3.983186 0.177898 5.241491 0.177899 3.701153 0 3.978847-2.820339 3.978848-3.549289 0-3.879051-4.716475-3.62739-8.36556-4.056949zM507.847593 605.999729c-3.679458 0-4.330305 4.742508-4.330305 6.465085a13.450847 13.450847 0 0 0 0.915526 4.629694c0.542373 1.214915 1.995932 1.995932 3.566644 1.917831 3.887729 0 3.718508-3.861695 4.195796-6.703729-0.932881-3.792271-0.754983-6.308881-4.347661-6.308881zM533.486644 619.016678c3.610034 0 4.742508-4.321627 4.742509-7.33722 0-4.456136-2.690169-5.679729-4.43878-5.679729-3.774915 0-4.096 2.855051-4.096 3.870373 0 0.216949 0.013017 0.347119 0.013017 0.360135 0 0.659525 0.039051 1.32339 0.039051 1.987255h-0.134509c0 0.750644-0.060746 1.509966-0.060746 2.264949 0 4.412746 3.176136 4.534237 3.844339 4.534237h0.091119z" fill="#2F2D41" p-id="15417"></path></svg>